<?xml version="1.0" encoding="utf-8"?>
<!-- Generator: Adobe Illustrator 27.9.1, SVG Export Plug-In . SVG Version: 6.00 Build 0)  -->
<svg version="1.1" id="レイヤー_1" xmlns="http://www.w3.org/2000/svg" xmlns:xlink="http://www.w3.org/1999/xlink" x="0px"
	 y="0px" viewBox="0 0 591.55 297.78" style="enable-background:new 0 0 591.55 297.78;" xml:space="preserve">
<style type="text/css">
	.st0{font-family:'KozGoPr6N-Regular-83pv-RKSJ-H';}
	.st1{font-size:12.0737px;}
	.st2{fill:none;stroke:#000000;stroke-miterlimit:10;}
	.st3{stroke:#000000;stroke-width:0.5;stroke-miterlimit:10;}
	.st4{font-size:12.0971px;}
	.st5{fill:#404040;stroke:#000000;stroke-width:0.5;stroke-miterlimit:10;}
	.st6{fill:#808080;stroke:#000000;stroke-width:0.5;stroke-miterlimit:10;}
	.st7{fill:#DFDFDF;stroke:#000000;stroke-width:0.5;stroke-miterlimit:10;}
</style>
<g>
	<g>
		<g>
			<text transform="matrix(1 0 0 1 22.2076 284.9926)" class="st0 st1">5</text>
			<text transform="matrix(1 0 0 1 83.2745 284.9926)" class="st0 st1">10</text>
			<text transform="matrix(1 0 0 1 147.6676 284.9926)" class="st0 st1">15</text>
			<text transform="matrix(1 0 0 1 212.0606 284.9926)" class="st0 st1">20</text>
			<text transform="matrix(1 0 0 1 276.4537 284.9926)" class="st0 st1">25</text>
		</g>
		<line class="st2" x1="25.53" y1="271.91" x2="283.11" y2="271.91"/>
		<g>
			<g>
				<line class="st2" x1="25.53" y1="271.91" x2="25.53" y2="265.47"/>
				<line class="st2" x1="89.93" y1="271.91" x2="89.93" y2="265.47"/>
				<line class="st2" x1="154.32" y1="271.91" x2="154.32" y2="265.47"/>
				<line class="st2" x1="218.71" y1="271.91" x2="218.71" y2="265.47"/>
				<line class="st2" x1="283.11" y1="271.91" x2="283.11" y2="265.47"/>
			</g>
			<g>
			</g>
		</g>
	</g>
	<g>
		<g>
			<text transform="matrix(1 0 0 1 14.857 276.4408)" class="st0 st1">0</text>
			<text transform="matrix(1 0 0 1 14.857 212.0473)" class="st0 st1">5</text>
			<text transform="matrix(1 0 0 1 8.2042 147.6547)" class="st0 st1">10</text>
			<text transform="matrix(1 0 0 1 8.2042 83.2616)" class="st0 st1">15</text>
			<text transform="matrix(1 0 0 1 8.2042 18.8686)" class="st0 st1">20</text>
		</g>
		<line class="st2" x1="25.53" y1="271.91" x2="25.53" y2="14.34"/>
		<g>
			<g>
				<line class="st2" x1="25.53" y1="271.91" x2="31.97" y2="271.91"/>
				<line class="st2" x1="25.53" y1="207.52" x2="31.97" y2="207.52"/>
				<line class="st2" x1="25.53" y1="143.13" x2="31.97" y2="143.13"/>
				<line class="st2" x1="25.53" y1="78.73" x2="31.97" y2="78.73"/>
				<line class="st2" x1="25.53" y1="14.34" x2="31.97" y2="14.34"/>
			</g>
			<g>
			</g>
		</g>
	</g>
	<g>
		<g>
		</g>
		<g>
		</g>
		<g>
		</g>
		<g>
		</g>
		<g>
		</g>
		<g>
		</g>
	</g>
	<g>
		<g>
		</g>
		<g>
		</g>
		<g>
		</g>
		<g>
			<g>
				<rect x="112.68" y="217.4" class="st3" width="6" height="6"/>
			</g>
		</g>
		<g>
			<g>
				<rect x="61.17" y="49.98" class="st3" width="6" height="6"/>
			</g>
		</g>
		<g>
			<g>
				<rect x="267.23" y="75.73" class="st3" width="6" height="6"/>
			</g>
		</g>
		<g>
			<g>
				<rect x="257.01" y="69.07" class="st3" width="6" height="6"/>
			</g>
		</g>
		<g>
			<g>
				<rect x="245" y="82.89" class="st3" width="6" height="6"/>
			</g>
		</g>
		<g>
			<g>
				<rect x="240.11" y="95.78" class="st3" width="6" height="6"/>
			</g>
		</g>
		<g>
			<g>
				<rect x="229.89" y="94" class="st3" width="6" height="6"/>
			</g>
		</g>
		<g>
			<g>
				<rect x="226.78" y="103.33" class="st3" width="6" height="6"/>
			</g>
		</g>
		<g>
			<g>
				<rect x="213" y="104.22" class="st3" width="6" height="6"/>
			</g>
		</g>
		<g>
			<g>
				<rect x="216.56" y="125.11" class="st3" width="6" height="6"/>
			</g>
		</g>
		<g>
			<g>
				<rect x="197.44" y="115.78" class="st3" width="6" height="6"/>
			</g>
		</g>
	</g>
</g>
<g>
	<g>
		<g>
			<text transform="matrix(1 0 0 1 315.2054 285.268)" class="st0 st4">0</text>
			<text transform="matrix(1 0 0 1 366.8197 285.268)" class="st0 st4">5</text>
			<text transform="matrix(1 0 0 1 415.1019 285.268)" class="st0 st4">10</text>
			<text transform="matrix(1 0 0 1 466.7162 285.268)" class="st0 st4">15</text>
			<text transform="matrix(1 0 0 1 518.3304 285.268)" class="st0 st4">20</text>
			<text transform="matrix(1 0 0 1 569.9447 285.268)" class="st0 st4">25</text>
		</g>
		<line class="st2" x1="318.54" y1="272.16" x2="576.61" y2="272.16"/>
		<g>
			<g>
				<line class="st2" x1="318.54" y1="272.16" x2="318.54" y2="265.71"/>
				<line class="st2" x1="370.15" y1="272.16" x2="370.15" y2="265.71"/>
				<line class="st2" x1="421.77" y1="272.16" x2="421.77" y2="265.71"/>
				<line class="st2" x1="473.38" y1="272.16" x2="473.38" y2="265.71"/>
				<line class="st2" x1="525" y1="272.16" x2="525" y2="265.71"/>
				<line class="st2" x1="576.61" y1="272.16" x2="576.61" y2="265.71"/>
			</g>
			<g>
			</g>
		</g>
	</g>
	<g>
		<line class="st2" x1="318.54" y1="272.16" x2="318.54" y2="14.09"/>
		<g>
			<g>
				<line class="st2" x1="318.54" y1="143.13" x2="324.99" y2="143.13"/>
			</g>
			<g>
			</g>
		</g>
	</g>
	<g>
		<g>
			<g>
				<rect x="318.54" y="197.32" class="st5" width="92.91" height="46.45"/>
			</g>
		</g>
		<g>
			<g>
				<rect x="318.54" y="145.71" class="st6" width="247.75" height="46.45"/>
			</g>
		</g>
		<g>
			<g>
				<rect x="318.54" y="94.09" class="st7" width="82.58" height="46.45"/>
			</g>
		</g>
		<g>
			<g>
				<rect x="318.54" y="42.48" class="st3" width="154.84" height="46.45"/>
			</g>
		</g>
	</g>
	<g>
		<g>
		</g>
		<g>
		</g>
		<g>
		</g>
		<g>
		</g>
	</g>
</g>
</svg>
